<svg xmlns="http://www.w3.org/2000/svg" width="1500" height="280" viewBox="0 0 1500 280">
    <defs>
      <linearGradient id="nexoraGradient" x1="0" y1="0" x2="1" y2="1">
        <stop offset="0%" stop-color="#4F46E5"/>
        <stop offset="54%" stop-color="#2563EB"/>
        <stop offset="100%" stop-color="#22D3EE"/>
      </linearGradient>
      <filter id="softGlow" x="-30%" y="-30%" width="160%" height="160%">
        <feGaussianBlur stdDeviation="7" result="b"/>
        <feMerge><feMergeNode in="b"/><feMergeNode in="SourceGraphic"/></feMerge>
      </filter>
    </defs>
    

    <rect x="85.05" y="62.60" width="34.85" height="155.80" rx="8.20" fill="#22D3EE"/>
    <rect x="169.10" y="62.60" width="34.85" height="155.80" rx="8.20" fill="#22D3EE"/>
    <polygon points="103.50,62.60 136.30,62.60 203.95,218.40 170.12,218.40" fill="#4F46E5"/>
    
        <polygon points="103.50,62.60 136.30,62.60 156.80,109.75 124.00,109.75" fill="#665EF5" opacity=".95"/>
        <rect x="169.10" y="62.60" width="34.85" height="71.67" rx="8.20" fill="#1CC9E8" opacity=".9"/>
        <rect x="57.38" y="101.55" width="9.22" height="9.22" rx="1.54" fill="#22D3EE" opacity=".95"/><rect x="70.70" y="87.20" width="11.27" height="11.27" rx="1.54" fill="#22D3EE" opacity=".95"/><rect x="54.30" y="131.27" width="7.17" height="7.17" rx="1.54" fill="#22D3EE" opacity=".95"/><rect x="72.75" y="122.05" width="8.20" height="8.20" rx="1.54" fill="#22D3EE" opacity=".95"/><rect x="63.52" y="154.85" width="6.15" height="6.15" rx="1.54" fill="#22D3EE" opacity=".95"/><rect x="77.88" y="144.60" width="6.15" height="6.15" rx="1.54" fill="#22D3EE" opacity=".95"/>
<path d="M280.28125 61.3515625H303.796875L333.4921875 117.3515625V61.3515625H353.453125V143.0H329.9375L300.2421875 87.0V143.0H280.28125Z M382.015625 61.3515625H438.8359375V77.265625H403.0703125V92.46875H436.703125V108.3828125H403.0703125V127.0859375H440.0390625V143.0H382.015625Z M512.0234375 101.328125 540.3515625 143.0H518.421875L499.3359375 115.109375L480.4140625 143.0H458.375L486.703125 101.328125L459.46875 61.3515625H481.453125L499.3359375 87.65625L517.1640625 61.3515625H539.2578125Z M598.171875 75.1328125Q588.546875 75.1328125 583.2421875 82.2421875Q577.9375 89.3515625 577.9375 102.2578125Q577.9375 115.109375 583.2421875 122.21875Q588.546875 129.328125 598.171875 129.328125Q607.8515625 129.328125 613.15625 122.21875Q618.4609375 115.109375 618.4609375 102.2578125Q618.4609375 89.3515625 613.15625 82.2421875Q607.8515625 75.1328125 598.171875 75.1328125ZM598.171875 59.875Q617.859375 59.875 629.015625 71.140625Q640.171875 82.40625 640.171875 102.2578125Q640.171875 122.0546875 629.015625 133.3203125Q617.859375 144.5859375 598.171875 144.5859375Q578.5390625 144.5859375 567.35546875 133.3203125Q556.171875 122.0546875 556.171875 102.2578125Q556.171875 82.40625 567.35546875 71.140625Q578.5390625 59.875 598.171875 59.875Z M694.0 97.5546875Q700.6171875 97.5546875 703.48828125 95.09375Q706.359375 92.6328125 706.359375 87.0Q706.359375 81.421875 703.48828125 79.015625Q700.6171875 76.609375 694.0 76.609375H685.140625V97.5546875ZM685.140625 112.1015625V143.0H664.0859375V61.3515625H696.2421875Q712.375 61.3515625 719.89453125 66.765625Q727.4140625 72.1796875 727.4140625 83.8828125Q727.4140625 91.9765625 723.50390625 97.171875Q719.59375 102.3671875 711.71875 104.828125Q716.0390625 105.8125 719.45703125 109.28515625Q722.875 112.7578125 726.375 119.8125L737.8046875 143.0H715.3828125L705.4296875 122.7109375Q702.421875 116.5859375 699.33203125 114.34375Q696.2421875 112.1015625 691.1015625 112.1015625Z M807.875 128.125H774.953125L769.7578125 143.0H748.59375L778.8359375 61.3515625H803.9375L834.1796875 143.0H813.015625ZM780.203125 112.9765625H802.5703125L791.4140625 80.4921875Z" fill="#071022"/>
<path d="M274.1318359375 176.31689453125H292.2724609375V180.1533203125H285.74658203125V196.0H280.6708984375V180.1533203125H274.1318359375Z M299.89599609375 176.31689453125H313.59375V180.1533203125H304.9716796875V183.818359375H313.07958984375V187.65478515625H304.9716796875V192.16357421875H313.8837890625V196.0H299.89599609375Z M338.94921875 194.9189453125Q337.5517578125 195.64404296875 336.03564453125 196.01318359375Q334.51953125 196.38232421875 332.87158203125 196.38232421875Q327.9541015625 196.38232421875 325.080078125 193.633544921875Q322.2060546875 190.884765625 322.2060546875 186.17822265625Q322.2060546875 181.45849609375 325.080078125 178.709716796875Q327.9541015625 175.9609375 332.87158203125 175.9609375Q334.51953125 175.9609375 336.03564453125 176.330078125Q337.5517578125 176.69921875 338.94921875 177.42431640625V181.498046875Q337.53857421875 180.53564453125 336.16748046875 180.08740234375Q334.79638671875 179.63916015625 333.2802734375 179.63916015625Q330.564453125 179.63916015625 329.0087890625 181.37939453125Q327.453125 183.11962890625 327.453125 186.17822265625Q327.453125 189.2236328125 329.0087890625 190.9638671875Q330.564453125 192.7041015625 333.2802734375 192.7041015625Q334.79638671875 192.7041015625 336.16748046875 192.255859375Q337.53857421875 191.8076171875 338.94921875 190.84521484375Z M348.15478515625 176.31689453125H353.23046875V183.818359375H360.71875V176.31689453125H365.79443359375V196.0H360.71875V187.65478515625H353.23046875V196.0H348.15478515625Z M375.75146484375 176.31689453125H381.42041015625L388.5791015625 189.81689453125V176.31689453125H393.39111328125V196.0H387.72216796875L380.5634765625 182.5V196.0H375.75146484375Z M412.33935546875 179.63916015625Q410.01904296875 179.63916015625 408.740234375 181.35302734375Q407.46142578125 183.06689453125 407.46142578125 186.17822265625Q407.46142578125 189.2763671875 408.740234375 190.990234375Q410.01904296875 192.7041015625 412.33935546875 192.7041015625Q414.6728515625 192.7041015625 415.95166015625 190.990234375Q417.23046875 189.2763671875 417.23046875 186.17822265625Q417.23046875 183.06689453125 415.95166015625 181.35302734375Q414.6728515625 179.63916015625 412.33935546875 179.63916015625ZM412.33935546875 175.9609375Q417.08544921875 175.9609375 419.77490234375 178.6767578125Q422.46435546875 181.392578125 422.46435546875 186.17822265625Q422.46435546875 190.95068359375 419.77490234375 193.66650390625Q417.08544921875 196.38232421875 412.33935546875 196.38232421875Q407.6064453125 196.38232421875 404.910400390625 193.66650390625Q402.21435546875 190.95068359375 402.21435546875 186.17822265625Q402.21435546875 181.392578125 404.910400390625 178.6767578125Q407.6064453125 175.9609375 412.33935546875 175.9609375Z M431.30078125 176.31689453125H436.37646484375V192.16357421875H445.28857421875V196.0H431.30078125Z M462.49658203125 179.63916015625Q460.17626953125 179.63916015625 458.8974609375 181.35302734375Q457.61865234375 183.06689453125 457.61865234375 186.17822265625Q457.61865234375 189.2763671875 458.8974609375 190.990234375Q460.17626953125 192.7041015625 462.49658203125 192.7041015625Q464.830078125 192.7041015625 466.10888671875 190.990234375Q467.3876953125 189.2763671875 467.3876953125 186.17822265625Q467.3876953125 183.06689453125 466.10888671875 181.35302734375Q464.830078125 179.63916015625 462.49658203125 179.63916015625ZM462.49658203125 175.9609375Q467.24267578125 175.9609375 469.93212890625 178.6767578125Q472.62158203125 181.392578125 472.62158203125 186.17822265625Q472.62158203125 190.95068359375 469.93212890625 193.66650390625Q467.24267578125 196.38232421875 462.49658203125 196.38232421875Q457.763671875 196.38232421875 455.067626953125 193.66650390625Q452.37158203125 190.95068359375 452.37158203125 186.17822265625Q452.37158203125 181.392578125 455.067626953125 178.6767578125Q457.763671875 175.9609375 462.49658203125 175.9609375Z M499.150390625 194.53662109375Q497.251953125 195.45947265625 495.20849609375 195.9208984375Q493.1650390625 196.38232421875 490.98974609375 196.38232421875Q486.072265625 196.38232421875 483.1982421875 193.633544921875Q480.32421875 190.884765625 480.32421875 186.17822265625Q480.32421875 181.4189453125 483.2509765625 178.68994140625Q486.177734375 175.9609375 491.2666015625 175.9609375Q493.23095703125 175.9609375 495.030517578125 176.330078125Q496.830078125 176.69921875 498.42529296875 177.42431640625V181.498046875Q496.77734375 180.56201171875 495.149169921875 180.1005859375Q493.52099609375 179.63916015625 491.88623046875 179.63916015625Q488.85400390625 179.63916015625 487.212646484375 181.333251953125Q485.5712890625 183.02734375 485.5712890625 186.17822265625Q485.5712890625 189.302734375 487.1533203125 191.00341796875Q488.7353515625 192.7041015625 491.64892578125 192.7041015625Q492.43994140625 192.7041015625 493.118896484375 192.605224609375Q493.7978515625 192.50634765625 494.33837890625 192.29541015625V188.47216796875H491.240234375V185.07080078125H499.150390625Z M508.61962890625 176.31689453125H513.6953125V196.0H508.61962890625Z M523.66552734375 176.31689453125H537.36328125V180.1533203125H528.7412109375V183.818359375H536.84912109375V187.65478515625H528.7412109375V192.16357421875H537.6533203125V196.0H523.66552734375Z M560.80712890625 176.9365234375V181.1025390625Q559.185546875 180.37744140625 557.64306640625 180.00830078125Q556.1005859375 179.63916015625 554.7294921875 179.63916015625Q552.91015625 179.63916015625 552.0400390625 180.14013671875Q551.169921875 180.64111328125 551.169921875 181.69580078125Q551.169921875 182.48681640625 551.756591796875 182.928466796875Q552.34326171875 183.3701171875 553.8857421875 183.6865234375L556.0478515625 184.12158203125Q559.33056640625 184.78076171875 560.71484375 186.12548828125Q562.09912109375 187.47021484375 562.09912109375 189.94873046875Q562.09912109375 193.205078125 560.167724609375 194.793701171875Q558.236328125 196.38232421875 554.26806640625 196.38232421875Q552.39599609375 196.38232421875 550.5107421875 196.0263671875Q548.62548828125 195.67041015625 546.740234375 194.9716796875V190.68701171875Q548.62548828125 191.68896484375 550.385498046875 192.196533203125Q552.1455078125 192.7041015625 553.7802734375 192.7041015625Q555.44140625 192.7041015625 556.32470703125 192.150390625Q557.2080078125 191.5966796875 557.2080078125 190.568359375Q557.2080078125 189.6455078125 556.608154296875 189.14453125Q556.00830078125 188.6435546875 554.21533203125 188.248046875L552.2509765625 187.81298828125Q549.2978515625 187.18017578125 547.933349609375 185.7958984375Q546.56884765625 184.41162109375 546.56884765625 182.06494140625Q546.56884765625 179.125 548.46728515625 177.54296875Q550.36572265625 175.9609375 553.92529296875 175.9609375Q555.546875 175.9609375 557.2607421875 176.204833984375Q558.974609375 176.44873046875 560.80712890625 176.9365234375Z M585.955078125 176.31689453125H591.03076171875V183.818359375H598.51904296875V176.31689453125H603.5947265625V196.0H598.51904296875V187.65478515625H591.03076171875V196.0H585.955078125Z M622.54296875 179.63916015625Q620.22265625 179.63916015625 618.94384765625 181.35302734375Q617.6650390625 183.06689453125 617.6650390625 186.17822265625Q617.6650390625 189.2763671875 618.94384765625 190.990234375Q620.22265625 192.7041015625 622.54296875 192.7041015625Q624.87646484375 192.7041015625 626.1552734375 190.990234375Q627.43408203125 189.2763671875 627.43408203125 186.17822265625Q627.43408203125 183.06689453125 626.1552734375 181.35302734375Q624.87646484375 179.63916015625 622.54296875 179.63916015625ZM622.54296875 175.9609375Q627.2890625 175.9609375 629.978515625 178.6767578125Q632.66796875 181.392578125 632.66796875 186.17822265625Q632.66796875 190.95068359375 629.978515625 193.66650390625Q627.2890625 196.38232421875 622.54296875 196.38232421875Q617.81005859375 196.38232421875 615.114013671875 193.66650390625Q612.41796875 190.95068359375 612.41796875 186.17822265625Q612.41796875 181.392578125 615.114013671875 178.6767578125Q617.81005859375 175.9609375 622.54296875 175.9609375Z M641.50439453125 176.31689453125H646.580078125V192.16357421875H655.4921875V196.0H641.50439453125Z M668.78466796875 180.1533203125V192.16357421875H670.60400390625Q673.71533203125 192.16357421875 675.356689453125 190.62109375Q676.998046875 189.07861328125 676.998046875 186.138671875Q676.998046875 183.2119140625 675.36328125 181.6826171875Q673.728515625 180.1533203125 670.60400390625 180.1533203125ZM663.708984375 176.31689453125H669.0615234375Q673.5439453125 176.31689453125 675.739013671875 176.956298828125Q677.93408203125 177.595703125 679.5029296875 179.125Q680.88720703125 180.45654296875 681.5595703125 182.19677734375Q682.23193359375 183.93701171875 682.23193359375 186.138671875Q682.23193359375 188.36669921875 681.5595703125 190.113525390625Q680.88720703125 191.8603515625 679.5029296875 193.19189453125Q677.9208984375 194.72119140625 675.7060546875 195.360595703125Q673.4912109375 196.0 669.0615234375 196.0H663.708984375Z M691.12109375 176.31689453125H696.19677734375V196.0H691.12109375Z M706.1669921875 176.31689453125H711.8359375L718.99462890625 189.81689453125V176.31689453125H723.806640625V196.0H718.1376953125L710.97900390625 182.5V196.0H706.1669921875Z M751.4560546875 194.53662109375Q749.5576171875 195.45947265625 747.51416015625 195.9208984375Q745.470703125 196.38232421875 743.29541015625 196.38232421875Q738.3779296875 196.38232421875 735.50390625 193.633544921875Q732.6298828125 190.884765625 732.6298828125 186.17822265625Q732.6298828125 181.4189453125 735.556640625 178.68994140625Q738.4833984375 175.9609375 743.572265625 175.9609375Q745.53662109375 175.9609375 747.336181640625 176.330078125Q749.1357421875 176.69921875 750.73095703125 177.42431640625V181.498046875Q749.0830078125 180.56201171875 747.454833984375 180.1005859375Q745.82666015625 179.63916015625 744.19189453125 179.63916015625Q741.15966796875 179.63916015625 739.518310546875 181.333251953125Q737.876953125 183.02734375 737.876953125 186.17822265625Q737.876953125 189.302734375 739.458984375 191.00341796875Q741.041015625 192.7041015625 743.95458984375 192.7041015625Q744.74560546875 192.7041015625 745.424560546875 192.605224609375Q746.103515625 192.50634765625 746.64404296875 192.29541015625V188.47216796875H743.5458984375V185.07080078125H751.4560546875Z M774.623046875 176.9365234375V181.1025390625Q773.00146484375 180.37744140625 771.458984375 180.00830078125Q769.91650390625 179.63916015625 768.54541015625 179.63916015625Q766.72607421875 179.63916015625 765.85595703125 180.14013671875Q764.98583984375 180.64111328125 764.98583984375 181.69580078125Q764.98583984375 182.48681640625 765.572509765625 182.928466796875Q766.1591796875 183.3701171875 767.70166015625 183.6865234375L769.86376953125 184.12158203125Q773.146484375 184.78076171875 774.53076171875 186.12548828125Q775.9150390625 187.47021484375 775.9150390625 189.94873046875Q775.9150390625 193.205078125 773.983642578125 194.793701171875Q772.05224609375 196.38232421875 768.083984375 196.38232421875Q766.2119140625 196.38232421875 764.32666015625 196.0263671875Q762.44140625 195.67041015625 760.55615234375 194.9716796875V190.68701171875Q762.44140625 191.68896484375 764.201416015625 192.196533203125Q765.96142578125 192.7041015625 767.59619140625 192.7041015625Q769.25732421875 192.7041015625 770.140625 192.150390625Q771.02392578125 191.5966796875 771.02392578125 190.568359375Q771.02392578125 189.6455078125 770.424072265625 189.14453125Q769.82421875 188.6435546875 768.03125 188.248046875L766.06689453125 187.81298828125Q763.11376953125 187.18017578125 761.749267578125 185.7958984375Q760.384765625 184.41162109375 760.384765625 182.06494140625Q760.384765625 179.125 762.283203125 177.54296875Q764.181640625 175.9609375 767.7412109375 175.9609375Q769.36279296875 175.9609375 771.07666015625 176.204833984375Q772.79052734375 176.44873046875 774.623046875 176.9365234375Z" fill="#2563EB"/>
</svg>