<svg xmlns="http://www.w3.org/2000/svg" width="512" height="512" viewBox="0 0 512 512">
    <defs>
      <linearGradient id="nexoraGradient" x1="0" y1="0" x2="1" y2="1">
        <stop offset="0%" stop-color="#4F46E5"/>
        <stop offset="54%" stop-color="#2563EB"/>
        <stop offset="100%" stop-color="#22D3EE"/>
      </linearGradient>
      <filter id="softGlow" x="-30%" y="-30%" width="160%" height="160%">
        <feGaussianBlur stdDeviation="7" result="b"/>
        <feMerge><feMergeNode in="b"/><feMergeNode in="SourceGraphic"/></feMerge>
      </filter>
    </defs>
    
<rect x="26" y="26" width="460" height="460" rx="108" fill="url(#nexoraGradient)"/>
<rect x="42" y="42" width="428" height="428" rx="94" fill="#081B33" opacity=".96"/>

    <rect x="155.50" y="112.00" width="59.50" height="266.00" rx="14.00" fill="#22D3EE"/>
    <rect x="299.00" y="112.00" width="59.50" height="266.00" rx="14.00" fill="#22D3EE"/>
    <polygon points="187.00,112.00 243.00,112.00 358.50,378.00 300.75,378.00" fill="#4F46E5"/>
    
        <polygon points="187.00,112.00 243.00,112.00 278.00,192.50 222.00,192.50" fill="#665EF5" opacity=".95"/>
        <rect x="299.00" y="112.00" width="59.50" height="122.36" rx="14.00" fill="#1CC9E8" opacity=".9"/>
        <rect x="108.25" y="178.50" width="15.75" height="15.75" rx="2.62" fill="#22D3EE" opacity=".95"/><rect x="131.00" y="154.00" width="19.25" height="19.25" rx="2.62" fill="#22D3EE" opacity=".95"/><rect x="103.00" y="229.25" width="12.25" height="12.25" rx="2.62" fill="#22D3EE" opacity=".95"/><rect x="134.50" y="213.50" width="14.00" height="14.00" rx="2.62" fill="#22D3EE" opacity=".95"/><rect x="118.75" y="269.50" width="10.50" height="10.50" rx="2.62" fill="#22D3EE" opacity=".95"/><rect x="143.25" y="252.00" width="10.50" height="10.50" rx="2.62" fill="#22D3EE" opacity=".95"/>
</svg>